<?xml version="1.0" encoding="UTF-8"?>
<svg width="800" height="600" xmlns="http://www.w3.org/2000/svg">
  <!-- Background -->
  <rect width="800" height="600" fill="#f5f5f5"/>
  
  <!-- Header -->
  <rect width="800" height="60" fill="#2c3e50"/>
  <text x="400" y="35" text-anchor="middle" fill="white" font-size="20" font-family="Arial">层级排行榜预览</text>
  
  <!-- Tier S (夯) -->
  <rect x="20" y="80" width="100" height="80" fill="#e74c3c"/>
  <text x="70" y="115" text-anchor="middle" fill="white" font-size="14" font-weight="bold">夯</text>
  <text x="70" y="135" text-anchor="middle" fill="white" font-size="10">S级</text>
  <rect x="130" y="80" width="650" height="80" fill="#f8f9fa" stroke="#dee2e6" stroke-width="1"/>
  
  <!-- Tier A (顶级) -->
  <rect x="20" y="170" width="100" height="80" fill="#f39c12"/>
  <text x="70" y="205" text-anchor="middle" fill="white" font-size="14" font-weight="bold">顶级</text>
  <text x="70" y="225" text-anchor="middle" fill="white" font-size="10">A级</text>
  <rect x="130" y="170" width="650" height="80" fill="#f8f9fa" stroke="#dee2e6" stroke-width="1"/>
  
  <!-- Tier B (人上人) -->
  <rect x="20" y="260" width="100" height="80" fill="#f1c40f"/>
  <text x="70" y="295" text-anchor="middle" fill="#2c3e50" font-size="14" font-weight="bold">人上人</text>
  <text x="70" y="315" text-anchor="middle" fill="#2c3e50" font-size="10">B级</text>
  <rect x="130" y="260" width="650" height="80" fill="#f8f9fa" stroke="#dee2e6" stroke-width="1"/>
  
  <!-- Tier C (NPC) -->
  <rect x="20" y="350" width="100" height="80" fill="#95a5a6"/>
  <text x="70" y="385" text-anchor="middle" fill="white" font-size="14" font-weight="bold">NPC</text>
  <text x="70" y="405" text-anchor="middle" fill="white" font-size="10">C级</text>
  <rect x="130" y="350" width="650" height="80" fill="#f8f9fa" stroke="#dee2e6" stroke-width="1"/>
  
  <!-- Tier D (拉完了) -->
  <rect x="20" y="440" width="100" height="80" fill="#ecf0f1"/>
  <text x="70" y="475" text-anchor="middle" fill="#2c3e50" font-size="14" font-weight="bold">拉完了</text>
  <text x="70" y="495" text-anchor="middle" fill="#2c3e50" font-size="10">D级</text>
  <rect x="130" y="440" width="650" height="80" fill="#f8f9fa" stroke="#dee2e6" stroke-width="1"/>
  
  <!-- Drag Area -->
  <rect x="20" y="540" width="760" height="40" fill="#34495e" stroke="#2c3e50" stroke-width="2"/>
  <text x="400" y="565" text-anchor="middle" fill="white" font-size="14" font-weight="bold">📋 待评价项目</text>
  
  <!-- Sample draggable items -->
  <rect x="30" y="542" width="60" height="36" fill="#3498db" rx="5"/>
  <text x="60" y="565" text-anchor="middle" fill="white" font-size="10">项目1</text>
  
  <rect x="100" y="542" width="60" height="36" fill="#e67e22" rx="5"/>
  <text x="130" y="565" text-anchor="middle" fill="white" font-size="10">项目2</text>
  
  <rect x="170" y="542" width="60" height="36" fill="#27ae60" rx="5"/>
  <text x="200" y="565" text-anchor="middle" fill="white" font-size="10">项目3</text>
</svg>